<?xml version='1.0' encoding='UTF-8'?>
<!-- Created with Fritzing (https://fritzing.org/) -->
<svg xmlns="http://www.w3.org/2000/svg" x="0in" height="0.78011149in" id="svg328" gorn="0"  y="0in" version="1.2" width="0.70224738in" viewBox="0 0 50.561811 56.167972">
    <desc >
        <referenceFile >GreenButton.svg</referenceFile>
    </desc>
    <defs id="defs332" />
    <g transform="translate(-3.8664849e-5)" >
        <g >
            <g id="g326" gorn="0.2.0.0"  partID="855139480">
                <g id="breadboard" gorn="0.2.0.0.0" >
                    <rect x="20.073" height="3.148" id="connector0pin" gorn="0.2.0.0.0.0"  fill="#919191" y="53.018002" width="2.1400001"/>
                    <rect x="27.292" height="3.1459999" id="connector1pin" gorn="0.2.0.0.0.1"  fill="#919191" y="53.018002" width="2.1589999"/>
                    <g x="20.073" height="0.4" id="connector0terminal" gorn="0.2.0.0.0.2"  fill="#919191" y="55.768" width="2.14"/>
                    <g x="27.292" height="0.402" id="connector1terminal" gorn="0.2.0.0.0.3"  fill="#919191" y="55.766" width="2.159"/>
                    <rect x="19.924999" height="8.2399998" id="bb" gorn="0.2.0.0.0.4"  fill="#8b8b8b" y="47.928001" width="2.994"/>
                    <rect x="27.111" height="8.2399998" id="aa" gorn="0.2.0.0.0.5"  fill="#8b8b8b" y="47.928001" width="2.994"/>
                    <path id="path33" stroke="#000000" gorn="0.2.0.0.0.6"  d="M 21.416,37.566 V 47.927" fill="none" stroke-width="3"/>
                    <path id="path35" stroke="#000000" gorn="0.2.0.0.0.7"  d="m 28.643,37.566 c 0,0 0,6.123 0,10.361" fill="none" stroke-width="3"/>
                    <ellipse cx="25.014" id="ellipse37" cy="15.211" rx="17.540001" gorn="0.2.0.0.0.8"  style="fill:#225500" fill="#8B8B8B" ry="7.316"/>
                    <path id="path39" gorn="0.2.0.0.0.9"  d="m 7.474,35.217 c 0,4.043 7.854,7.316 17.54,7.316 9.688,0 17.54,-3.273 17.54,-7.316 V 15.211 c 0,4.042 -7.853,7.316 -17.54,7.316 -9.687,0 -17.54,-3.273 -17.54,-7.316 z" fill="#262626"/>
                    <g id="g43" gorn="0.2.0.0.0.10" >
                        <path enable-background="new    " id="path41" gorn="0.2.0.0.0.10.0"  d="m 7.474,15.211 v 20.004 c 0,2.553 3.142,4.801 7.893,6.109 V 21.319 C 10.616,20.009 7.474,17.765 7.474,15.211 Z" opacity="0.63"/>
                    </g>
                    <path id="path45" gorn="0.2.0.0.0.11"  d="m 41.947,18.347 v 17.509 c 0.385,-0.604 0.607,-1.234 0.607,-1.889 V 16.46 c 0,0.654 -0.223,1.284 -0.607,1.887 z" fill="#8b8b8b"/>
                    <g id="g289" gorn="0.2.0.0.0.12" >
                        <g id="g287" gorn="0.2.0.0.0.12.0" >
                            <g enable-background="new    " id="g285" gorn="0.2.0.0.0.12.0.0" >
                                <g enable-background="new    " id="g51" gorn="0.2.0.0.0.12.0.0.0" >
                                    <g enable-background="new    " id="g49" gorn="0.2.0.0.0.12.0.0.0.0" >
                                        <path id="path47" gorn="0.2.0.0.0.12.0.0.0.0.0"  d="m 0.065,24.584 h 50.432 c -0.011,0.047 -0.03,0.088 -0.06,0.123 -0.03,0.035 -0.068,0.063 -0.116,0.086 -0.048,0.023 -0.104,0.04 -0.168,0.051 -0.064,0.011 -0.138,0.017 -0.217,0.017 H 45.038 42.58 40.117 35.179 30.232 25.278 22.8 20.322 17.845 15.371 12.9 10.43 7.967 5.507 3.051 0.602 C 0.526,24.861 0.456,24.855 0.395,24.844 0.333,24.833 0.279,24.816 0.234,24.793 0.188,24.77 0.151,24.742 0.122,24.707 0.093,24.672 0.075,24.631 0.065,24.584" fill="#141414"/>
                                    </g>
                                </g>
                                <g id="g55" gorn="0.2.0.0.0.12.0.0.1" >
                                    <polygon points="0.065,24.584 0.007,24.313 50.552,24.313 50.496,24.584 " id="polygon53" gorn="0.2.0.0.0.12.0.0.1.0"  fill="#131313"/>
                                </g>
                                <g enable-background="new    " id="g111" gorn="0.2.0.0.0.12.0.0.2" >
                                    <g enable-background="new    " id="g109" gorn="0.2.0.0.0.12.0.0.2.0" >
                                        <polyline points="39.699,10.357,10.01,10.357,10.008,10.354,10.006,10.351,10.004,10.348,10.002,10.344,39.705,10.344,39.704,10.348,39.703,10.351,39.701,10.354,39.699,10.357" id="polyline57" gorn="0.2.0.0.0.12.0.0.2.0.0"  fill="#535353"/>
                                        <polyline points="39.705,10.344,10.002,10.344,10,10.34,9.998,10.336,9.996,10.332,9.994,10.328,39.714,10.328,39.712,10.332,39.71,10.336,39.707,10.34,39.705,10.344" id="polyline59" gorn="0.2.0.0.0.12.0.0.2.0.1"  fill="#4b4b4b"/>
                                        <polyline points="39.714,10.328,9.994,10.328,9.991,10.324,9.989,10.32,9.987,10.316,9.984,10.312,39.722,10.312,39.72,10.316,39.718,10.32,39.716,10.324,39.714,10.328" id="polyline61" gorn="0.2.0.0.0.12.0.0.2.0.2"  fill="#404040"/>
                                        <polyline points="39.722,10.312,9.984,10.312,9.982,10.308,9.979,10.304,9.977,10.3,9.974,10.296,39.732,10.296,39.73,10.3,39.727,10.304,39.724,10.308,39.722,10.312" id="polyline63" gorn="0.2.0.0.0.12.0.0.2.0.3"  fill="#262626"/>
                                        <polyline points="39.732,10.296,9.974,10.296,9.972,10.291,9.97,10.288,9.968,10.284,9.966,10.28,39.741,10.28,39.738,10.284,39.736,10.288,39.734,10.291,39.732,10.296" id="polyline65" gorn="0.2.0.0.0.12.0.0.2.0.4"  fill="#252525"/>
                                        <polyline points="39.741,10.28,9.966,10.28,9.964,10.276,9.961,10.271,9.959,10.268,9.957,10.264,39.749,10.264,39.746,10.268,39.745,10.271,39.743,10.276,39.741,10.28" id="polyline67" gorn="0.2.0.0.0.12.0.0.2.0.5"  fill="#242424"/>
                                        <polyline points="39.749,10.264,9.957,10.264,9.955,10.26,9.952,10.256,9.95,10.252,9.948,10.248,39.757,10.248,39.755,10.252,39.753,10.256,39.751,10.26,39.749,10.264" id="polyline69" gorn="0.2.0.0.0.12.0.0.2.0.6"  fill="#242424"/>
                                        <polyline points="39.757,10.248,9.948,10.248,9.946,10.244,9.943,10.24,9.941,10.236,9.939,10.232,39.765,10.232,39.763,10.236,39.761,10.24,39.76,10.244,39.757,10.248" id="polyline71" gorn="0.2.0.0.0.12.0.0.2.0.7"  fill="#232323"/>
                                        <polyline points="39.765,10.232,9.939,10.232,9.936,10.228,9.934,10.225,9.931,10.221,9.929,10.217,39.775,10.217,39.773,10.221,39.771,10.225,39.768,10.228,39.765,10.232" id="polyline73" gorn="0.2.0.0.0.12.0.0.2.0.8"  fill="#222222"/>
                                        <polyline points="39.775,10.217,9.929,10.217,9.927,10.213,9.925,10.209,9.923,10.205,9.921,10.202,39.784,10.202,39.781,10.205,39.779,10.209,39.777,10.213,39.775,10.217" id="polyline75" gorn="0.2.0.0.0.12.0.0.2.0.9"  fill="#212121"/>
                                        <polyline points="39.784,10.202,9.921,10.202,9.917,10.196,9.914,10.19,9.911,10.185,9.908,10.18,39.795,10.18,39.792,10.185,39.789,10.19,39.787,10.196,39.784,10.202" id="polyline77" gorn="0.2.0.0.0.12.0.0.2.0.10"  fill="#212121"/>
                                        <polyline points="39.795,10.18,9.908,10.18,9.905,10.174,9.901,10.168,9.897,10.162,9.894,10.156,39.809,10.156,39.804,10.162,39.802,10.168,39.798,10.174,39.795,10.18" id="polyline79" gorn="0.2.0.0.0.12.0.0.2.0.11"  fill="#202020"/>
                                        <polyline points="39.809,10.156,9.894,10.156,9.89,10.15,9.886,10.144,9.884,10.139,9.88,10.133,39.822,10.133,39.819,10.139,39.815,10.144,39.812,10.15,39.809,10.156" id="polyline81" gorn="0.2.0.0.0.12.0.0.2.0.12"  fill="#1f1f1f"/>
                                        <polyline points="39.822,10.133,9.88,10.133,9.877,10.127,9.873,10.121,9.87,10.115,9.866,10.109,39.835,10.109,39.831,10.115,39.829,10.121,39.825,10.127,39.822,10.133" id="polyline83" gorn="0.2.0.0.0.12.0.0.2.0.13"  fill="#1e1e1e"/>
                                        <polyline points="39.835,10.109,9.866,10.109,9.863,10.103,9.859,10.098,9.856,10.092,9.852,10.087,39.847,10.087,39.844,10.092,39.841,10.098,39.838,10.103,39.835,10.109" id="polyline85" gorn="0.2.0.0.0.12.0.0.2.0.14"  fill="#1e1e1e"/>
                                        <polyline points="39.847,10.087,9.852,10.087,9.848,10.081,9.845,10.075,9.842,10.07,9.839,10.064,39.861,10.064,39.858,10.07,39.855,10.075,39.851,10.081,39.847,10.087" id="polyline87" gorn="0.2.0.0.0.12.0.0.2.0.15"  fill="#1d1d1d"/>
                                        <polyline points="39.861,10.064,9.839,10.064,9.834,10.057,9.83,10.049,9.826,10.042,9.821,10.035,39.878,10.035,39.873,10.042,39.87,10.049,39.866,10.057,39.861,10.064" id="polyline89" gorn="0.2.0.0.0.12.0.0.2.0.16"  fill="#1c1c1c"/>
                                        <polyline points="39.878,10.035,9.821,10.035,9.814,10.023,9.807,10.013,9.801,10.002,9.794,9.992,39.904,9.992,39.897,10.002,39.89,10.013,39.884,10.023,39.878,10.035" id="polyline91" gorn="0.2.0.0.0.12.0.0.2.0.17"  fill="#1b1b1b"/>
                                        <polyline points="39.904,9.992,9.794,9.992,9.788,9.981,9.781,9.971,9.775,9.96,9.768,9.95,39.927,9.95,39.922,9.96,39.915,9.971,39.91,9.981,39.904,9.992" id="polyline93" gorn="0.2.0.0.0.12.0.0.2.0.18"  fill="#1b1b1b"/>
                                        <polyline points="39.927,9.95,9.768,9.95,9.76,9.938,9.754,9.927,9.747,9.916,9.74,9.905,39.955,9.905,39.949,9.916,39.942,9.927,39.935,9.938,39.927,9.95" id="polyline95" gorn="0.2.0.0.0.12.0.0.2.0.19"  fill="#1a1a1a"/>
                                        <path id="path97" gorn="0.2.0.0.0.12.0.0.2.0.20"  d="M 39.955,9.905 H 9.74 C 9.736,9.899 9.732,9.892 9.728,9.886 9.723,9.88 9.719,9.873 9.716,9.867 9.713,9.861 9.708,9.855 9.704,9.849 9.7,9.843 9.696,9.837 9.692,9.831 h 30.309 c -0.004,0.006 -0.007,0.012 -0.011,0.018 -0.004,0.006 -0.008,0.012 -0.012,0.018 -0.005,0.006 -0.009,0.012 -0.013,0.019 -0.003,0.007 -0.007,0.013 -0.01,0.019" fill="#191919"/>
                                        <path id="path99" gorn="0.2.0.0.0.12.0.0.2.0.21"  d="M 40,9.832 H 9.692 C 9.687,9.824 9.681,9.817 9.677,9.81 9.672,9.803 9.667,9.795 9.662,9.789 9.657,9.782 9.652,9.774 9.647,9.768 9.641,9.761 9.636,9.754 9.633,9.747 H 40.055 C 40.05,9.754 40.046,9.761 40.041,9.768 40.036,9.775 40.032,9.782 40.027,9.789 40.022,9.796 40.016,9.803 40.012,9.81 40.01,9.817 40.005,9.824 40,9.832" fill="#181818"/>
                                        <path id="path101" gorn="0.2.0.0.0.12.0.0.2.0.22"  d="M 40.055,9.746 H 9.634 C 9.626,9.735 9.619,9.724 9.612,9.714 9.605,9.703 9.596,9.693 9.59,9.683 9.582,9.673 9.575,9.662 9.569,9.653 9.563,9.644 9.554,9.633 9.548,9.624 h 30.593 c -0.007,0.009 -0.013,0.02 -0.021,0.029 -0.006,0.01 -0.014,0.02 -0.021,0.03 -0.007,0.01 -0.014,0.021 -0.021,0.031 -0.007,0.01 -0.015,0.02 -0.023,0.032" fill="#181818"/>
                                        <path id="path103" gorn="0.2.0.0.0.12.0.0.2.0.23"  d="M 40.138,9.623 H 9.546 C 9.534,9.606 9.522,9.59 9.509,9.574 9.496,9.558 9.485,9.543 9.472,9.529 9.461,9.515 9.45,9.501 9.438,9.487 9.427,9.474 9.416,9.461 9.405,9.448 H 40.272 C 40.26,9.46 40.251,9.473 40.24,9.487 40.229,9.501 40.219,9.515 40.208,9.529 40.196,9.544 40.187,9.559 40.174,9.574 40.162,9.589 40.151,9.606 40.138,9.623" fill="#171717"/>
                                        <path id="path105" gorn="0.2.0.0.0.12.0.0.2.0.24"  d="M 40.273,9.448 H 9.406 C 9.383,9.422 9.361,9.398 9.34,9.377 9.319,9.356 9.299,9.337 9.28,9.321 9.26,9.305 9.242,9.292 9.224,9.28 9.207,9.269 9.191,9.26 9.176,9.254 h 31.316 c -0.015,0.006 -0.03,0.015 -0.047,0.026 -0.017,0.011 -0.033,0.025 -0.052,0.041 -0.02,0.017 -0.037,0.035 -0.059,0.056 -0.018,0.021 -0.04,0.045 -0.061,0.071" fill="#161616"/>
                                        <polyline points="40.492,9.255,9.176,9.255,9.163,9.25,9.15,9.247,9.138,9.245,9.127,9.244,12.255,9.244,15.391,9.244,18.534,9.244,21.68,9.244,24.829,9.244,26.404,9.244,27.978,9.244,31.125,9.244,34.269,9.244,35.839,9.244,37.407,9.244,40.538,9.244,40.527,9.245,40.514,9.247,40.503,9.25,40.492,9.255" id="polyline107" gorn="0.2.0.0.0.12.0.0.2.0.25"  fill="#151515"/>
                                    </g>
                                </g>
                                <g id="g115" gorn="0.2.0.0.0.12.0.0.3" >
                                    <path id="path113" gorn="0.2.0.0.0.12.0.0.3.0"  d="m 39.699,10.357 c 0.687,1.017 1.41,2.089 2.129,3.155 0.719,1.066 1.432,2.124 2.099,3.112 0.667,0.988 1.287,1.907 1.817,2.693 0.531,0.787 0.973,1.441 1.283,1.901 -3.312,0 -6.857,0 -10.524,0 -3.666,0 -7.453,0 -11.246,0 -3.793,0 -7.591,0 -11.28,0 -3.69,0 -7.271,0 -10.63,0 C 3.64,20.74 4.05,20.072 4.538,19.276 5.026,18.48 5.593,17.557 6.199,16.568 6.804,15.579 7.451,14.526 8.098,13.47 c 0.648,-1.056 1.299,-2.115 1.911,-3.114 2.376,0 4.822,0 7.305,0 2.481,0 5,0 7.52,0 2.521,0 5.041,0 7.529,0 2.489,10e-4 4.946,10e-4 7.336,10e-4 z" fill="#212121"/>
                                </g>
                                <g enable-background="new    " id="g175" gorn="0.2.0.0.0.12.0.0.4" >
                                    <g enable-background="new    " id="g173" gorn="0.2.0.0.0.12.0.0.4.0" >
                                        <polyline points="10.01,10.357,3.346,21.219,3.344,21.22,3.341,21.222,3.338,21.224,3.335,21.225,10.006,10.351,10.007,10.352,10.008,10.354,10.009,10.355,10.01,10.357" id="polyline117" gorn="0.2.0.0.0.12.0.0.4.0.0"  fill="#535353"/>
                                        <polyline points="10.006,10.351,3.335,21.225,3.332,21.227,3.329,21.229,3.325,21.231,3.321,21.233,10.002,10.343,10.003,10.345,10.004,10.347,10.005,10.349,10.006,10.351" id="polyline119" gorn="0.2.0.0.0.12.0.0.4.0.1"  fill="#4b4b4b"/>
                                        <polyline points="10.002,10.343,3.321,21.233,3.318,21.235,3.314,21.237,3.311,21.239,3.306,21.241,9.997,10.335,9.998,10.337,9.999,10.339,10.001,10.341,10.002,10.343" id="polyline121" gorn="0.2.0.0.0.12.0.0.4.0.2"  fill="#404040"/>
                                        <polyline points="9.997,10.335,3.306,21.241,3.303,21.243,3.3,21.245,3.297,21.247,3.293,21.248,9.993,10.328,9.994,10.33,9.995,10.331,9.996,10.333,9.997,10.335" id="polyline123" gorn="0.2.0.0.0.12.0.0.4.0.3"  fill="#262626"/>
                                        <polyline points="9.993,10.328,3.293,21.248,3.289,21.251,3.286,21.253,3.283,21.255,3.279,21.257,9.989,10.32,9.99,10.322,9.991,10.324,9.992,10.326,9.993,10.328" id="polyline125" gorn="0.2.0.0.0.12.0.0.4.0.4"  fill="#252525"/>
                                        <polyline points="9.989,10.32,3.279,21.257,3.275,21.259,3.272,21.261,3.268,21.263,3.264,21.265,9.984,10.312,9.985,10.314,9.986,10.316,9.988,10.318,9.989,10.32" id="polyline127" gorn="0.2.0.0.0.12.0.0.4.0.5"  fill="#242424"/>
                                        <polyline points="9.984,10.312,3.264,21.265,3.261,21.267,3.258,21.269,3.254,21.27,3.251,21.272,9.98,10.304,9.981,10.306,9.982,10.308,9.983,10.31,9.984,10.312" id="polyline129" gorn="0.2.0.0.0.12.0.0.4.0.6"  fill="#242424"/>
                                        <polyline points="9.98,10.304,3.251,21.272,3.247,21.274,3.244,21.276,3.241,21.279,3.237,21.281,9.974,10.296,9.976,10.298,9.977,10.3,9.979,10.302,9.98,10.304" id="polyline131" gorn="0.2.0.0.0.12.0.0.4.0.7"  fill="#232323"/>
                                        <polyline points="9.974,10.296,3.237,21.281,3.233,21.283,3.23,21.285,3.226,21.287,3.222,21.289,9.97,10.289,9.971,10.29,9.972,10.292,9.974,10.294,9.974,10.296" id="polyline133" gorn="0.2.0.0.0.12.0.0.4.0.8"  fill="#222222"/>
                                        <polyline points="9.97,10.289,3.222,21.289,3.219,21.29,3.216,21.292,3.212,21.294,3.209,21.297,9.967,10.281,9.968,10.283,9.969,10.285,9.969,10.287,9.97,10.289" id="polyline135" gorn="0.2.0.0.0.12.0.0.4.0.9"  fill="#212121"/>
                                        <polyline points="9.967,10.281,3.209,21.297,3.205,21.299,3.202,21.301,3.199,21.303,3.195,21.305,9.962,10.273,9.963,10.275,9.964,10.277,9.966,10.279,9.967,10.281" id="polyline137" gorn="0.2.0.0.0.12.0.0.4.0.10"  fill="#212121"/>
                                        <polyline points="9.962,10.273,3.195,21.305,3.191,21.307,3.188,21.309,3.184,21.31,3.18,21.312,9.958,10.266,9.959,10.268,9.96,10.269,9.961,10.271,9.962,10.273" id="polyline139" gorn="0.2.0.0.0.12.0.0.4.0.11"  fill="#202020"/>
                                        <polyline points="9.958,10.266,3.18,21.312,3.177,21.314,3.174,21.316,3.17,21.319,3.167,21.321,9.954,10.258,9.955,10.26,9.955,10.262,9.957,10.264,9.958,10.266" id="polyline141" gorn="0.2.0.0.0.12.0.0.4.0.12"  fill="#1f1f1f"/>
                                        <polyline points="9.954,10.258,3.167,21.321,3.163,21.323,3.16,21.325,3.157,21.327,3.153,21.329,9.949,10.25,9.95,10.252,9.952,10.254,9.953,10.256,9.954,10.258" id="polyline143" gorn="0.2.0.0.0.12.0.0.4.0.13"  fill="#1e1e1e"/>
                                        <polyline points="9.949,10.25,3.153,21.329,3.15,21.331,3.146,21.333,3.141,21.335,3.138,21.337,9.945,10.243,9.946,10.245,9.947,10.247,9.948,10.248,9.949,10.25" id="polyline145" gorn="0.2.0.0.0.12.0.0.4.0.14"  fill="#1e1e1e"/>
                                        <polyline points="9.945,10.243,3.138,21.337,3.135,21.339,3.132,21.341,3.129,21.343,3.125,21.345,9.94,10.235,9.942,10.237,9.943,10.239,9.944,10.241,9.945,10.243" id="polyline147" gorn="0.2.0.0.0.12.0.0.4.0.15"  fill="#1d1d1d"/>
                                        <polyline points="9.94,10.235,3.125,21.345,3.121,21.347,3.119,21.349,3.115,21.351,3.111,21.353,9.936,10.228,9.937,10.23,9.938,10.232,9.939,10.234,9.94,10.235" id="polyline149" gorn="0.2.0.0.0.12.0.0.4.0.16"  fill="#1c1c1c"/>
                                        <polyline points="9.936,10.228,3.111,21.353,3.108,21.355,3.104,21.357,3.101,21.359,3.097,21.361,9.931,10.221,9.932,10.223,9.934,10.225,9.935,10.226,9.936,10.228" id="polyline151" gorn="0.2.0.0.0.12.0.0.4.0.17"  fill="#1b1b1b"/>
                                        <polyline points="9.931,10.221,3.097,21.361,3.094,21.363,3.091,21.365,3.087,21.367,3.083,21.369,9.927,10.213,9.928,10.215,9.929,10.217,9.93,10.219,9.931,10.221" id="polyline153" gorn="0.2.0.0.0.12.0.0.4.0.18"  fill="#1b1b1b"/>
                                        <polyline points="9.927,10.213,3.083,21.369,3.08,21.371,3.077,21.373,3.073,21.375,3.07,21.377,9.923,10.206,9.924,10.207,9.925,10.209,9.927,10.211,9.927,10.213" id="polyline155" gorn="0.2.0.0.0.12.0.0.4.0.19"  fill="#1a1a1a"/>
                                        <polyline points="9.923,10.206,3.07,21.377,3.066,21.379,3.063,21.381,3.059,21.383,3.055,21.385,9.919,10.198,9.92,10.2,9.921,10.202,9.922,10.204,9.923,10.206" id="polyline157" gorn="0.2.0.0.0.12.0.0.4.0.20"  fill="#191919"/>
                                        <polyline points="9.919,10.198,3.055,21.385,3.043,21.393,3.031,21.4,3.018,21.407,3.006,21.415,9.903,10.172,9.907,10.178,9.911,10.185,9.915,10.192,9.919,10.198" id="polyline159" gorn="0.2.0.0.0.12.0.0.4.0.21"  fill="#181818"/>
                                        <polyline points="9.903,10.172,3.006,21.415,2.992,21.423,2.978,21.431,2.964,21.439,2.951,21.448,9.885,10.143,9.89,10.15,9.895,10.157,9.899,10.164,9.903,10.172" id="polyline161" gorn="0.2.0.0.0.12.0.0.4.0.22"  fill="#181818"/>
                                        <polyline points="9.885,10.143,2.951,21.448,2.937,21.456,2.923,21.464,2.91,21.473,2.896,21.48,9.869,10.114,9.873,10.121,9.877,10.128,9.882,10.136,9.885,10.143" id="polyline163" gorn="0.2.0.0.0.12.0.0.4.0.23"  fill="#171717"/>
                                        <polyline points="9.869,10.114,2.896,21.48,2.882,21.489,2.869,21.497,2.855,21.505,2.841,21.514,9.852,10.086,9.856,10.093,9.861,10.1,9.865,10.107,9.869,10.114" id="polyline165" gorn="0.2.0.0.0.12.0.0.4.0.24"  fill="#161616"/>
                                        <polyline points="9.852,10.086,2.841,21.514,2.828,21.522,2.814,21.53,2.801,21.539,2.787,21.547,9.835,10.058,9.839,10.065,9.844,10.072,9.847,10.079,9.852,10.086" id="polyline167" gorn="0.2.0.0.0.12.0.0.4.0.25"  fill="#151515"/>
                                        <path id="path169" gorn="0.2.0.0.0.12.0.0.4.0.26"  d="M 9.835,10.058 2.787,21.547 C 2.773,21.556 2.759,21.564 2.746,21.572 2.732,21.581 2.718,21.589 2.705,21.598 2.691,21.606 2.678,21.615 2.664,21.623 2.65,21.632 2.637,21.64 2.623,21.649 L 9.785,9.976 c 0.004,0.007 0.008,0.014 0.013,0.021 0.004,0.007 0.008,0.014 0.014,0.021 0.004,0.007 0.008,0.014 0.013,0.021 0.002,0.005 0.006,0.012 0.01,0.019" fill="#151515"/>
                                        <path id="path171" gorn="0.2.0.0.0.12.0.0.4.0.27"  d="M 9.785,9.976 2.623,21.649 c -0.295,0.187 -0.574,0.377 -0.833,0.567 -0.259,0.19 -0.495,0.38 -0.707,0.564 -0.212,0.184 -0.396,0.364 -0.552,0.533 -0.156,0.169 -0.279,0.329 -0.369,0.475 l 0.435,-0.71 0.438,-0.712 0.438,-0.715 0.44,-0.718 0.442,-0.72 0.442,-0.722 0.444,-0.724 0.445,-0.725 0.445,-0.727 0.446,-0.728 0.447,-0.729 0.447,-0.729 0.448,-0.73 0.449,-0.731 0.448,-0.731 0.449,-0.731 0.447,-0.731 0.448,-0.73 0.448,-0.73 L 9.06,9.286 C 9.082,9.25 9.116,9.239 9.159,9.251 9.202,9.263 9.256,9.3 9.318,9.359 9.38,9.418 9.451,9.5 9.529,9.603 9.607,9.706 9.693,9.83 9.785,9.976" fill="#141414"/>
                                    </g>
                                </g>
                                <g enable-background="new    " id="g223" gorn="0.2.0.0.0.12.0.0.5" >
                                    <g enable-background="new    " id="g221" gorn="0.2.0.0.0.12.0.0.5.0" >
                                        <path id="path177" gorn="0.2.0.0.0.12.0.0.5.0.0"  d="M 47.027,21.219 39.699,10.358 c 0.002,-0.003 0.004,-0.007 0.005,-0.01 0.002,-0.003 0.004,-0.007 0.006,-0.01 10e-4,-0.003 0.003,-0.006 0.005,-0.01 0.002,-0.003 0.003,-0.006 0.005,-0.009 l 7.38,10.939 c -0.006,-0.003 -0.012,-0.007 -0.019,-0.01 -0.006,-0.003 -0.012,-0.007 -0.018,-0.01 -0.008,-0.003 -0.014,-0.007 -0.02,-0.01 -0.005,-0.003 -0.01,-0.006 -0.016,-0.009" fill="#535353"/>
                                        <path id="path179" gorn="0.2.0.0.0.12.0.0.5.0.1"  d="m 47.098,21.258 -7.38,-10.939 c 0.002,-0.004 0.005,-0.008 0.008,-0.012 0.002,-0.004 0.004,-0.008 0.007,-0.012 0.002,-0.004 0.004,-0.008 0.006,-0.012 0.003,-0.004 0.005,-0.008 0.007,-0.012 l 7.446,11.038 C 47.184,21.305 47.175,21.3 47.169,21.296 47.161,21.292 47.154,21.288 47.148,21.283 47.14,21.278 47.131,21.275 47.125,21.27 47.115,21.266 47.107,21.262 47.098,21.258" fill="#4b4b4b"/>
                                        <path id="path181" gorn="0.2.0.0.0.12.0.0.5.0.2"  d="M 47.192,21.308 39.746,10.27 c 0.002,-0.004 0.004,-0.008 0.007,-0.012 0.002,-0.004 0.004,-0.008 0.006,-0.012 0.003,-0.004 0.005,-0.008 0.007,-0.012 0.003,-0.004 0.005,-0.008 0.008,-0.012 l 7.512,11.136 C 47.278,21.354 47.27,21.35 47.263,21.345 47.255,21.341 47.247,21.337 47.241,21.332 47.233,21.328 47.225,21.324 47.219,21.32 47.207,21.316 47.2,21.312 47.192,21.308" fill="#404040"/>
                                        <path id="path183" gorn="0.2.0.0.0.12.0.0.5.0.3"  d="M 47.285,21.358 39.772,10.222 c 0.001,-0.003 0.003,-0.006 0.005,-0.009 10e-4,-0.003 0.003,-0.006 0.005,-0.009 0.002,-0.003 0.003,-0.006 0.005,-0.009 0.002,-0.003 0.003,-0.006 0.005,-0.009 l 7.563,11.212 c -0.007,-0.003 -0.013,-0.007 -0.019,-0.01 -0.006,-0.003 -0.012,-0.006 -0.018,-0.01 -0.006,-0.004 -0.013,-0.006 -0.019,-0.01 -0.006,-0.004 -0.009,-0.006 -0.014,-0.01" fill="#262626"/>
                                        <polyline points="47.355,21.398,39.791,10.186,39.794,10.181,39.798,10.175,39.801,10.169,39.803,10.163,47.402,21.424,47.389,21.418,47.378,21.411,47.367,21.405,47.355,21.398" id="polyline185" gorn="0.2.0.0.0.12.0.0.5.0.4"  fill="#252525"/>
                                        <polyline points="47.402,21.424,39.803,10.163,39.807,10.157,39.811,10.151,39.815,10.145,39.818,10.14,47.449,21.451,47.437,21.444,47.425,21.437,47.413,21.431,47.402,21.424" id="polyline187" gorn="0.2.0.0.0.12.0.0.5.0.5"  fill="#242424"/>
                                        <polyline points="47.449,21.451,39.818,10.14,39.821,10.134,39.824,10.128,39.828,10.123,39.83,10.117,47.495,21.477,47.483,21.471,47.471,21.464,47.46,21.457,47.449,21.451" id="polyline189" gorn="0.2.0.0.0.12.0.0.5.0.6"  fill="#242424"/>
                                        <polyline points="47.495,21.477,39.83,10.117,39.833,10.111,39.837,10.105,39.84,10.1,39.843,10.094,47.54,21.504,47.53,21.497,47.518,21.49,47.506,21.484,47.495,21.477" id="polyline191" gorn="0.2.0.0.0.12.0.0.5.0.7"  fill="#232323"/>
                                        <polyline points="47.54,21.504,39.843,10.094,39.846,10.089,39.849,10.083,39.853,10.078,39.857,10.072,47.586,21.53,47.576,21.523,47.564,21.517,47.552,21.51,47.54,21.504" id="polyline193" gorn="0.2.0.0.0.12.0.0.5.0.8"  fill="#222222"/>
                                        <polyline points="47.586,21.53,39.857,10.072,39.86,10.066,39.863,10.061,39.866,10.055,39.87,10.05,47.632,21.557,47.621,21.55,47.61,21.543,47.597,21.537,47.586,21.53" id="polyline195" gorn="0.2.0.0.0.12.0.0.5.0.9"  fill="#212121"/>
                                        <path id="path197" gorn="0.2.0.0.0.12.0.0.5.0.10"  d="M 47.632,21.557 39.869,10.05 c 10e-4,-0.003 0.003,-0.006 0.005,-0.01 0.002,-0.003 0.004,-0.006 0.006,-0.009 0.002,-0.003 0.004,-0.006 0.006,-0.009 0.002,-0.003 0.003,-0.006 0.005,-0.01 l 7.82,11.592 C 47.704,21.6 47.698,21.596 47.691,21.592 47.684,21.588 47.677,21.584 47.67,21.58 47.663,21.576 47.656,21.572 47.649,21.568 47.646,21.564 47.638,21.56 47.632,21.557" fill="#212121"/>
                                        <path id="path199" gorn="0.2.0.0.0.12.0.0.5.0.11"  d="m 47.711,21.603 -7.82,-11.592 c 0.003,-0.003 0.005,-0.006 0.007,-0.009 C 39.9,9.999 39.902,9.996 39.904,9.993 39.906,9.99 39.907,9.987 39.909,9.984 39.911,9.981 39.913,9.978 39.915,9.975 l 7.877,11.676 c -0.006,-0.004 -0.013,-0.008 -0.02,-0.012 -0.007,-0.004 -0.014,-0.008 -0.021,-0.012 -0.007,-0.004 -0.014,-0.008 -0.02,-0.012 -0.007,-0.004 -0.013,-0.008 -0.02,-0.012" fill="#202020"/>
                                        <path id="path201" gorn="0.2.0.0.0.12.0.0.5.0.12"  d="M 47.79,21.651 39.913,9.975 C 39.915,9.972 39.917,9.969 39.919,9.966 39.921,9.963 39.922,9.96 39.924,9.957 39.926,9.954 39.928,9.951 39.93,9.948 39.932,9.945 39.935,9.942 39.936,9.939 l 7.935,11.76 C 47.864,21.695 47.858,21.691 47.85,21.687 47.843,21.683 47.837,21.679 47.83,21.675 47.823,21.671 47.816,21.667 47.81,21.663 47.803,21.659 47.797,21.655 47.79,21.651" fill="#1f1f1f"/>
                                        <path id="path203" gorn="0.2.0.0.0.12.0.0.5.0.13"  d="M 47.87,21.698 39.935,9.938 C 39.938,9.934 39.94,9.931 39.942,9.927 39.944,9.924 39.947,9.92 39.949,9.916 39.951,9.912 39.953,9.909 39.956,9.905 39.958,9.901 39.96,9.898 39.962,9.894 l 8.003,11.862 c -0.008,-0.005 -0.016,-0.01 -0.022,-0.015 -0.006,-0.005 -0.017,-0.01 -0.023,-0.015 -0.007,-0.005 -0.016,-0.01 -0.023,-0.015 -0.012,-0.003 -0.02,-0.008 -0.027,-0.013" fill="#1e1e1e"/>
                                        <path id="path205" gorn="0.2.0.0.0.12.0.0.5.0.14"  d="M 47.964,21.757 39.961,9.894 c 0.004,-0.005 0.007,-0.01 0.01,-0.015 0.003,-0.005 0.007,-0.01 0.01,-0.015 0.003,-0.005 0.006,-0.01 0.01,-0.015 C 39.994,9.844 39.997,9.839 40,9.834 l 8.098,12.003 C 48.087,21.83 48.077,21.823 48.067,21.816 48.054,21.809 48.045,21.802 48.034,21.795 48.023,21.788 48.013,21.781 48.001,21.774 47.987,21.77 47.976,21.764 47.964,21.757" fill="#1e1e1e"/>
                                        <path id="path207" gorn="0.2.0.0.0.12.0.0.5.0.15"  d="M 48.095,21.839 39.998,9.836 c 0.003,-0.005 0.007,-0.01 0.01,-0.016 0.003,-0.006 0.007,-0.01 0.011,-0.016 0.003,-0.005 0.007,-0.01 0.01,-0.015 0.003,-0.005 0.007,-0.01 0.01,-0.015 L 48.24,21.93 C 48.228,21.922 48.217,21.915 48.205,21.907 48.192,21.9 48.181,21.892 48.169,21.885 48.157,21.877 48.147,21.87 48.134,21.862 48.121,21.854 48.108,21.847 48.095,21.839" fill="#1d1d1d"/>
                                        <path id="path209" gorn="0.2.0.0.0.12.0.0.5.0.16"  d="M 48.239,21.93 40.038,9.774 c 0.005,-0.007 0.01,-0.014 0.014,-0.021 0.005,-0.007 0.011,-0.014 0.015,-0.021 0.005,-0.007 0.01,-0.014 0.014,-0.021 0.005,-0.006 0.009,-0.013 0.014,-0.02 l 8.346,12.37 c -0.017,-0.011 -0.032,-0.022 -0.05,-0.033 -0.017,-0.011 -0.032,-0.021 -0.05,-0.032 -0.017,-0.011 -0.033,-0.022 -0.05,-0.033 -0.019,-0.012 -0.036,-0.023 -0.052,-0.033" fill="#1c1c1c"/>
                                        <path id="path211" gorn="0.2.0.0.0.12.0.0.5.0.17"  d="M 48.437,22.06 40.092,9.69 C 40.098,9.681 40.106,9.672 40.112,9.663 40.118,9.654 40.124,9.645 40.13,9.637 40.136,9.628 40.143,9.62 40.15,9.612 40.156,9.604 40.162,9.595 40.168,9.588 L 48.703,22.24 C 48.682,22.225 48.66,22.21 48.639,22.195 48.618,22.18 48.596,22.165 48.575,22.15 48.554,22.135 48.531,22.12 48.51,22.105 48.482,22.09 48.459,22.075 48.437,22.06" fill="#1b1b1b"/>
                                        <path id="path213" gorn="0.2.0.0.0.12.0.0.5.0.18"  d="M 48.7,22.24 40.165,9.588 c 0.009,-0.012 0.017,-0.024 0.025,-0.035 0.008,-0.011 0.017,-0.022 0.024,-0.033 0.009,-0.011 0.018,-0.021 0.024,-0.032 0.006,-0.011 0.017,-0.02 0.023,-0.03 l 8.806,13.05 c -0.03,-0.022 -0.061,-0.044 -0.09,-0.067 -0.03,-0.022 -0.062,-0.044 -0.092,-0.067 -0.03,-0.021 -0.062,-0.045 -0.094,-0.067 C 48.762,22.285 48.732,22.263 48.7,22.24" fill="#1b1b1b"/>
                                        <path id="path215" gorn="0.2.0.0.0.12.0.0.5.0.19"  d="M 49.069,22.509 40.263,9.459 c 0.014,-0.015 0.024,-0.029 0.036,-0.042 0.013,-0.013 0.023,-0.026 0.035,-0.038 0.011,-0.012 0.021,-0.023 0.032,-0.033 0.011,-0.01 0.021,-0.02 0.032,-0.029 l 9.178,13.604 C 49.537,22.887 49.498,22.854 49.457,22.819 49.416,22.785 49.375,22.751 49.332,22.716 49.29,22.682 49.246,22.647 49.202,22.613 49.16,22.579 49.115,22.544 49.069,22.509" fill="#1a1a1a"/>
                                        <path id="path217" gorn="0.2.0.0.0.12.0.0.5.0.20"  d="M 49.578,22.92 40.4,9.316 c 0.017,-0.014 0.031,-0.027 0.047,-0.037 0.016,-0.01 0.029,-0.018 0.043,-0.024 0.014,-0.006 0.025,-0.009 0.038,-0.011 0.012,-0.002 0.021,0 0.032,0.003 l 9.646,14.3 C 50.166,23.499 50.122,23.449 50.075,23.398 50.028,23.347 49.978,23.296 49.927,23.243 49.874,23.191 49.82,23.138 49.76,23.083 49.702,23.028 49.64,22.976 49.578,22.92" fill="#191919"/>
                                        <path id="path219" gorn="0.2.0.0.0.12.0.0.5.0.21"  d="m 50.207,23.548 -9.646,-14.3 c 0.003,0.001 0.007,0.002 0.011,0.004 0.003,0.002 0.006,0.004 0.01,0.007 0.003,0.002 0.006,0.005 0.009,0.008 0.003,0.003 0.006,0.007 0.008,0.011 l 0.492,0.729 0.492,0.73 0.493,0.731 0.493,0.73 0.493,0.731 0.492,0.73 0.493,0.731 0.492,0.73 0.492,0.729 0.491,0.728 0.49,0.727 0.489,0.726 0.488,0.724 0.487,0.722 0.971,1.438 0.964,1.428 0.479,0.71 0.479,0.707 C 50.357,23.742 50.346,23.724 50.333,23.707 50.32,23.689 50.308,23.672 50.294,23.654 50.28,23.636 50.267,23.618 50.252,23.6 50.237,23.582 50.222,23.566 50.207,23.548" fill="#181818"/>
                                    </g>
                                </g>
                                <g enable-background="new    " id="g283" gorn="0.2.0.0.0.12.0.0.6" >
                                    <g enable-background="new    " id="g281" gorn="0.2.0.0.0.12.0.0.6.0" >
                                        <polyline points="3.346,21.219,47.027,21.219,47.029,21.22,47.032,21.222,47.035,21.223,47.037,21.225,3.336,21.225,3.339,21.223,3.341,21.222,3.344,21.22,3.346,21.219" id="polyline225" gorn="0.2.0.0.0.12.0.0.6.0.0"  fill="#535353"/>
                                        <polyline points="3.336,21.225,47.037,21.225,47.04,21.226,47.043,21.228,47.047,21.23,47.05,21.232,3.323,21.232,3.327,21.23,3.33,21.228,3.333,21.226,3.336,21.225" id="polyline227" gorn="0.2.0.0.0.12.0.0.6.0.1"  fill="#4b4b4b"/>
                                        <polyline points="3.323,21.232,47.05,21.232,47.053,21.233,47.057,21.235,47.061,21.237,47.065,21.239,3.31,21.239,3.313,21.237,3.317,21.235,3.32,21.233,3.323,21.232" id="polyline229" gorn="0.2.0.0.0.12.0.0.6.0.2"  fill="#404040"/>
                                        <polyline points="3.31,21.239,47.065,21.239,47.068,21.241,47.072,21.243,47.075,21.245,47.079,21.247,3.297,21.247,3.3,21.245,3.303,21.243,3.306,21.241,3.31,21.239" id="polyline231" gorn="0.2.0.0.0.12.0.0.6.0.3"  fill="#262626"/>
                                        <polyline points="3.297,21.247,47.079,21.247,47.081,21.248,47.085,21.25,47.088,21.252,47.092,21.254,3.284,21.254,3.288,21.252,3.29,21.25,3.294,21.248,3.297,21.247" id="polyline233" gorn="0.2.0.0.0.12.0.0.6.0.4"  fill="#252525"/>
                                        <polyline points="3.284,21.254,47.092,21.254,47.094,21.256,47.098,21.257,47.102,21.259,47.106,21.261,3.271,21.261,3.274,21.259,3.278,21.257,3.281,21.256,3.284,21.254" id="polyline235" gorn="0.2.0.0.0.12.0.0.6.0.5"  fill="#242424"/>
                                        <polyline points="3.271,21.261,47.106,21.261,47.109,21.263,47.113,21.265,47.116,21.267,47.12,21.269,3.258,21.269,3.26,21.267,3.264,21.265,3.268,21.263,3.271,21.261" id="polyline237" gorn="0.2.0.0.0.12.0.0.6.0.6"  fill="#242424"/>
                                        <polyline points="3.258,21.269,47.12,21.269,47.122,21.27,47.126,21.272,47.129,21.274,47.133,21.276,3.245,21.276,3.248,21.274,3.251,21.272,3.255,21.27,3.258,21.269" id="polyline239" gorn="0.2.0.0.0.12.0.0.6.0.7"  fill="#232323"/>
                                        <polyline points="3.245,21.276,47.133,21.276,47.135,21.278,47.139,21.28,47.143,21.281,47.147,21.283,3.232,21.283,3.235,21.281,3.239,21.28,3.242,21.278,3.245,21.276" id="polyline241" gorn="0.2.0.0.0.12.0.0.6.0.8"  fill="#222222"/>
                                        <polyline points="3.232,21.283,47.147,21.283,47.15,21.285,47.154,21.287,47.157,21.289,47.161,21.291,3.219,21.291,3.221,21.289,3.224,21.287,3.229,21.285,3.232,21.283" id="polyline243" gorn="0.2.0.0.0.12.0.0.6.0.9"  fill="#212121"/>
                                        <polyline points="3.219,21.291,47.161,21.291,47.163,21.292,47.167,21.294,47.17,21.296,47.174,21.298,3.206,21.298,3.209,21.296,3.213,21.294,3.216,21.292,3.219,21.291" id="polyline245" gorn="0.2.0.0.0.12.0.0.6.0.10"  fill="#212121"/>
                                        <polyline points="3.206,21.298,47.174,21.298,47.177,21.3,47.18,21.302,47.184,21.304,47.188,21.306,3.193,21.306,3.196,21.304,3.2,21.302,3.203,21.3,3.206,21.298" id="polyline247" gorn="0.2.0.0.0.12.0.0.6.0.11"  fill="#202020"/>
                                        <polyline points="3.193,21.306,47.188,21.306,47.191,21.308,47.195,21.31,47.198,21.311,47.202,21.313,3.179,21.313,3.184,21.311,3.187,21.31,3.19,21.308,3.193,21.306" id="polyline249" gorn="0.2.0.0.0.12.0.0.6.0.12"  fill="#1f1f1f"/>
                                        <polyline points="3.179,21.313,47.202,21.313,47.205,21.315,47.208,21.317,47.211,21.318,47.214,21.32,3.167,21.32,3.17,21.318,3.174,21.317,3.177,21.315,3.179,21.313" id="polyline251" gorn="0.2.0.0.0.12.0.0.6.0.13"  fill="#1e1e1e"/>
                                        <polyline points="3.167,21.32,47.214,21.32,47.218,21.322,47.221,21.324,47.224,21.326,47.228,21.328,3.155,21.328,3.158,21.326,3.161,21.324,3.164,21.322,3.167,21.32" id="polyline253" gorn="0.2.0.0.0.12.0.0.6.0.14"  fill="#1e1e1e"/>
                                        <polyline points="3.155,21.328,47.228,21.328,47.232,21.33,47.235,21.331,47.239,21.333,47.242,21.335,3.141,21.335,3.145,21.333,3.148,21.331,3.151,21.33,3.155,21.328" id="polyline255" gorn="0.2.0.0.0.12.0.0.6.0.15"  fill="#1d1d1d"/>
                                        <polyline points="3.141,21.335,47.242,21.335,47.246,21.337,47.248,21.339,47.252,21.341,47.255,21.343,3.129,21.343,3.132,21.341,3.135,21.339,3.137,21.337,3.141,21.335" id="polyline257" gorn="0.2.0.0.0.12.0.0.6.0.16"  fill="#1c1c1c"/>
                                        <polyline points="3.129,21.343,47.255,21.343,47.259,21.345,47.261,21.347,47.265,21.349,47.269,21.35,3.116,21.35,3.119,21.349,3.122,21.347,3.125,21.345,3.129,21.343" id="polyline259" gorn="0.2.0.0.0.12.0.0.6.0.17"  fill="#1b1b1b"/>
                                        <polyline points="3.116,21.35,47.269,21.35,47.273,21.352,47.276,21.354,47.279,21.356,47.283,21.358,3.103,21.358,3.106,21.356,3.109,21.354,3.113,21.352,3.116,21.35" id="polyline261" gorn="0.2.0.0.0.12.0.0.6.0.18"  fill="#1b1b1b"/>
                                        <polyline points="3.103,21.358,47.283,21.358,47.286,21.359,47.289,21.361,47.292,21.363,47.296,21.365,3.09,21.365,3.093,21.363,3.096,21.361,3.099,21.359,3.103,21.358" id="polyline263" gorn="0.2.0.0.0.12.0.0.6.0.19"  fill="#1a1a1a"/>
                                        <polyline points="3.09,21.365,47.296,21.365,47.299,21.367,47.302,21.369,47.305,21.371,47.31,21.373,3.078,21.373,3.08,21.371,3.084,21.369,3.087,21.367,3.09,21.365" id="polyline265" gorn="0.2.0.0.0.12.0.0.6.0.20"  fill="#191919"/>
                                        <polyline points="3.078,21.373,47.31,21.373,47.313,21.374,47.316,21.376,47.32,21.378,47.323,21.38,3.064,21.38,3.068,21.378,3.071,21.376,3.074,21.374,3.078,21.373" id="polyline267" gorn="0.2.0.0.0.12.0.0.6.0.21"  fill="#181818"/>
                                        <polyline points="3.064,21.38,47.323,21.38,47.33,21.384,47.335,21.387,47.341,21.39,47.346,21.394,3.042,21.394,3.047,21.39,3.052,21.387,3.059,21.384,3.064,21.38" id="polyline269" gorn="0.2.0.0.0.12.0.0.6.0.22"  fill="#181818"/>
                                        <path id="path271" gorn="0.2.0.0.0.12.0.0.6.0.23"  d="m 3.042,21.394 h 44.305 c 0.007,0.003 0.013,0.006 0.018,0.01 0.006,0.003 0.012,0.006 0.018,0.009 0.005,0.003 0.012,0.006 0.018,0.01 0.006,0.003 0.011,0.006 0.017,0.009 H 2.977 C 2.982,21.429 2.988,21.426 2.993,21.423 2.998,21.42 3.004,21.417 3.009,21.413 3.014,21.41 3.021,21.407 3.026,21.404 3.031,21.4 3.037,21.397 3.042,21.394" fill="#171717"/>
                                        <path id="path273" gorn="0.2.0.0.0.12.0.0.6.0.24"  d="m 2.977,21.432 h 44.437 c 0.006,0.003 0.012,0.006 0.017,0.01 0.007,0.003 0.013,0.006 0.019,0.009 0.005,0.003 0.01,0.006 0.016,0.009 0.006,0.003 0.012,0.006 0.018,0.009 H 2.913 C 2.918,21.466 2.924,21.463 2.929,21.46 2.935,21.457 2.941,21.454 2.946,21.45 2.951,21.447 2.957,21.444 2.962,21.441 2.967,21.438 2.971,21.435 2.977,21.432" fill="#161616"/>
                                        <path id="path275" gorn="0.2.0.0.0.12.0.0.6.0.25"  d="m 2.913,21.47 h 44.568 c 0.006,0.003 0.011,0.006 0.017,0.01 0.006,0.003 0.012,0.006 0.017,0.01 0.007,0.003 0.013,0.006 0.018,0.009 0.006,0.003 0.012,0.006 0.017,0.01 H 2.849 c 0.006,-0.003 0.011,-0.006 0.017,-0.01 0.005,-0.003 0.011,-0.006 0.016,-0.009 0.005,-0.003 0.01,-0.007 0.017,-0.01 0.004,-0.004 0.01,-0.007 0.014,-0.01" fill="#151515"/>
                                        <path id="path277" gorn="0.2.0.0.0.12.0.0.6.0.26"  d="m 2.849,21.508 h 44.698 c 0.006,0.003 0.013,0.006 0.018,0.009 0.006,0.003 0.012,0.007 0.017,0.01 0.006,0.003 0.012,0.006 0.017,0.01 0.007,0.003 0.013,0.006 0.018,0.01 H 2.788 c 0.005,-0.003 0.01,-0.006 0.016,-0.01 0.006,-0.003 0.011,-0.006 0.017,-0.01 0.005,-0.003 0.011,-0.006 0.016,-0.009 0.003,-0.003 0.007,-0.007 0.012,-0.01" fill="#151515"/>
                                        <path id="path279" gorn="0.2.0.0.0.12.0.0.6.0.27"  d="m 2.788,21.547 h 44.827 c 0.445,0.259 0.857,0.528 1.228,0.794 0.368,0.266 0.69,0.529 0.954,0.776 0.264,0.247 0.467,0.479 0.599,0.682 0.131,0.203 0.188,0.378 0.158,0.514 H 0.007 c -0.027,-0.135 0.025,-0.311 0.148,-0.514 0.123,-0.204 0.314,-0.435 0.563,-0.682 0.249,-0.247 0.556,-0.51 0.904,-0.776 0.35,-0.266 0.743,-0.535 1.166,-0.794" fill="#141414"/>
                                    </g>
                                </g>
                            </g>
                        </g>
                    </g>
                    <ellipse cx="25.014" id="ellipse291" cy="15.211" rx="17.540001" gorn="0.2.0.0.0.13"  fill="#dfdfdf" ry="7.316"/>
                    <g id="g313" gorn="0.2.0.0.0.14" >
                        <g id="g311" gorn="0.2.0.0.0.14.0" >
                            <g enable-background="new    " id="g309" gorn="0.2.0.0.0.14.0.0" >
                                <g id="g295" gorn="0.2.0.0.0.14.0.0.0" >
                                    <path id="path293" gorn="0.2.0.0.0.14.0.0.0.0"  d="m 25.312,3.817 c 8.973,0 16.244,2.349 16.244,5.255 0,2.897 -7.271,5.247 -16.244,5.247 -8.965,0 -16.236,-2.349 -16.236,-5.247 0,-2.906 7.271,-5.255 16.236,-5.255 z" fill="#7a0000"/>
                                </g>
                                <g enable-background="new    " id="g307" gorn="0.2.0.0.0.14.0.0.1" >
                                    <g enable-background="new    " id="g305" gorn="0.2.0.0.0.14.0.0.1.0" >
                                        <path id="path297" gorn="0.2.0.0.0.14.0.0.1.0.0"  d="m 41.556,9.072 v 6.981 c 0,0.081 -0.006,0.161 -0.017,0.24 V 9.312 c 0.012,-0.079 0.017,-0.159 0.017,-0.24" fill="#510000"/>
                                        <path id="path299" gorn="0.2.0.0.0.14.0.0.1.0.1"  d="m 41.54,9.313 v 6.981 c -0.014,0.1 -0.037,0.199 -0.067,0.297 V 9.61 c 0.03,-0.098 0.054,-0.197 0.067,-0.297" fill="#4e0000"/>
                                        <path id="path301" gorn="0.2.0.0.0.14.0.0.1.0.2"  d="m 41.472,9.61 v 6.981 c -0.037,0.121 -0.089,0.241 -0.151,0.359 V 9.969 C 41.384,9.851 41.435,9.731 41.472,9.61" fill="#4c0000"/>
                                        <path id="path303" gorn="0.2.0.0.0.14.0.0.1.0.3"  d="M 41.321,9.969 V 16.95 C 40.004,19.42 33.338,21.3 25.312,21.3 16.347,21.3 9.076,18.951 9.076,16.054 V 9.073 c 0,2.897 7.271,5.247 16.236,5.247 8.025,-10e-4 14.691,-1.881 16.009,-4.351" fill="#490000"/>
                                    </g>
                                </g>
                            </g>
                        </g>
                    </g>
                    <g id="g323" gorn="0.2.0.0.0.15" >
                        <ellipse cx="25.296" id="ellipse315" cy="9.6400003" rx="16.158001" gorn="0.2.0.0.0.15.0"  style="fill:#225500" fill="#CC1414" ry="6.638"/>
                        <g id="g321" gorn="0.2.0.0.0.15.1" >
                            <g id="g319" gorn="0.2.0.0.0.15.1.0" >
                                <path id="path317" gorn="0.2.0.0.0.15.1.0.0"  d="m 25.295,0 c 8.971,-0.001 16.07,5.72 16.159,9.386 0.089,3.667 -7.007,3.832 -16.159,3.833 C 16.146,13.221 9.048,13.053 9.137,9.386 9.226,5.72 16.327,0.001 25.295,0 Z" fill="#cc1414"/>
                            </g>
                        </g>
                    </g>
                    <g transform="scale(0.74999964)" >
                        <g >
                            <path id="path2263" stroke="none" gorn="0.2.0.0.0.16.0.0" fill-opacity="1"  d="M 30.604009,28.271793 C 23.97829,27.958086 17.973763,26.598961 14.748588,24.682921 13.787333,24.11185 12.775174,23.148686 12.449482,22.495109 l -0.263316,-0.528408 0.0034,-4.170409 c 0.0034,-4.169731 0.0034,-4.170322 0.191119,-3.626831 1.034114,2.993811 6.083642,5.683944 12.865803,6.85425 2.997378,0.517218 5.052245,0.680889 8.554103,0.681341 7.992898,0.001 14.887975,-1.667432 18.825612,-4.555399 0.87773,-0.643751 1.797132,-1.643396 2.161042,-2.349651 l 0.281927,-0.54715 v 4.176392 4.176392 l -0.40026,0.506368 c -1.4892,1.88398 -5.60488,3.541678 -11.024747,4.440507 -4.214134,0.69887 -8.489925,0.93472 -13.040113,0.719282 z" fill="#225500" stroke-width="4.128" stroke-dasharray="none"/>
                        </g>
                    </g>
                </g>
                <g transform="scale(0.74999964)" >
                    <g >
                        <path id="path1983" stroke="none" gorn="0.2.0.0.1.0.0" fill-opacity="1"  d="M 31.2624,21.591165 C 27.300709,21.409796 23.236008,20.699584 20.053184,19.632616 19.374461,19.405089 18.124994,18.876508 17.27659,18.45799 11.603554,15.659482 10.731497,12.205628 14.583783,7.7929022 16.176744,5.9681938 19.218836,3.8349636 21.988913,2.600145 26.238159,0.70595624 30.53802,-0.09713132 35.273037,0.11906062 43.058683,0.47453844 51.182304,4.5684249 54.258516,9.6867639 c 0.278278,0.4630131 0.602252,1.1453781 0.719939,1.5163671 0.275281,0.86777 0.293552,2.118074 0.04139,2.832501 -0.604921,1.713882 -2.313043,3.241664 -5.105312,4.566305 -2.83949,1.347043 -6.314629,2.250192 -10.528024,2.736115 -1.289267,0.148687 -5.222345,0.370527 -6.067374,0.342219 -0.226241,-0.0076 -1.151773,-0.04768 -2.056737,-0.08911 z" fill="#55d400" stroke-width="4.128" stroke-dasharray="none"/>
                    </g>
                </g>
                <g transform="scale(0.74999964)" >
                    <g >
                        <path id="path2123" stroke="none" gorn="0.2.0.0.2.0.0" fill-opacity="1"  d="M 30.851053,21.526943 C 24.386179,21.12811 18.917931,19.636865 15.407038,17.315206 12.907827,15.662547 11.896022,13.696612 12.447607,11.565042 13.473357,7.6010859 19.274655,3.14143 25.87676,1.2415924 c 2.659857,-0.76540707 4.938755,-1.07188135 7.956561,-1.07002693 3.02853,0.001861 5.348717,0.34332169 8.175529,1.20318803 7.59621,2.3106327 13.549157,7.689612 13.113118,11.8487845 -0.380678,3.631107 -6.581891,6.909507 -15.055341,7.959318 -2.87092,0.35569 -6.706261,0.498893 -9.215574,0.344087 z" fill="#55d400" stroke-width="4.128" stroke-dasharray="none"/>
                    </g>
                </g>
            </g>
        </g>
    </g>
</svg>
